<?xml version="1.0" encoding="UTF-8" standalone="no"?>
<svg
   width="304"
   height="304"
   version="1.1"
   id="svg18"
   sodipodi:docname="favicon.svg"
   inkscape:version="1.1.1 (3bf5ae0d25, 2021-09-20)"
   xmlns:inkscape="http://www.inkscape.org/namespaces/inkscape"
   xmlns:sodipodi="http://sodipodi.sourceforge.net/DTD/sodipodi-0.dtd"
   xmlns="http://www.w3.org/2000/svg"
   xmlns:svg="http://www.w3.org/2000/svg">
  <defs
     id="defs22" />
  <sodipodi:namedview
     id="namedview20"
     pagecolor="#505050"
     bordercolor="#ffffff"
     borderopacity="1"
     inkscape:pageshadow="0"
     inkscape:pageopacity="0"
     inkscape:pagecheckerboard="1"
     showgrid="false"
     inkscape:zoom="0.46538242"
     inkscape:cx="1185.0469"
     inkscape:cy="151.48832"
     inkscape:window-width="1920"
     inkscape:window-height="1017"
     inkscape:window-x="-8"
     inkscape:window-y="1072"
     inkscape:window-maximized="1"
     inkscape:current-layer="svg18"
     fit-margin-top="0"
     fit-margin-left="0"
     fit-margin-right="0"
     fit-margin-bottom="0" />
  <path
     fill="none"
     d="M 2,2 H 102 V 52 H 2 Z m 200,50 h 100 v 50 H 202 Z M 2,102 h 100 v 50 H 2 Z m 200,50 h 100 v 50 H 202 Z"
     style="fill:#ffffff;fill-opacity:0;stroke:#ffca28;stroke-width:4px"
     id="path2" />
  <path
     d="m 2,202 h 100 v 50 H 2 Z"
     style="fill:#ffca28;fill-opacity:1;stroke:#ffca28;stroke-width:4px"
     id="path4" />
  <path
     fill="none"
     d="m 202,252 h 100 v 50 H 202 Z"
     style="fill:#ffffff;fill-opacity:0;stroke:#ffca28;stroke-width:4px"
     id="path6" />
  <path
     fill="none"
     d="M 102,2 H 202 V 52 H 102 Z m 0,50 h 100 v 50 H 102 Z m 0,50 h 100 v 50 H 102 Z m 0,50 h 100 v 50 H 102 Z"
     style="fill:#ffffff;fill-opacity:0;stroke:#ff8f00;stroke-width:4px"
     id="path8" />
  <path
     d="m 102,202 h 100 v 50 H 102 Z"
     style="fill:#ff8f00;fill-opacity:1;stroke:#ff8f00;stroke-width:4px"
     id="path10" />
  <path
     fill="none"
     d="m 102,252 h 100 v 50 H 102 Z"
     style="fill:#ffffff;fill-opacity:0;stroke:#ff8f00;stroke-width:4px"
     id="path12" />
</svg>
