<?xml version="1.0" encoding="UTF-8" standalone="no"?>
<!DOCTYPE svg PUBLIC "-//W3C//DTD SVG 1.1//EN"
 "http://www.w3.org/Graphics/SVG/1.1/DTD/svg11.dtd">
<!-- Generated by graphviz version 3.0.0 (20220413.0242)
 -->
<!-- Title: inheritancebbdc09aa38 Pages: 1 -->
<svg width="393pt" height="64pt"
 viewBox="0.00 0.00 393.00 64.00" xmlns="http://www.w3.org/2000/svg" xmlns:xlink="http://www.w3.org/1999/xlink">
<g id="graph0" class="graph" transform="scale(1 1) rotate(0) translate(4 60)">
<title>inheritancebbdc09aa38</title>
<!-- ConfigurationMixIn -->
<g id="node1" class="node">
<title>ConfigurationMixIn</title>
<polygon fill="white" stroke="black" stroke-width="0.5" points="152,-56 0,-56 0,-37 152,-37 152,-56"/>
<text text-anchor="middle" x="76" y="-44" font-family="Vera Sans, DejaVu Sans, Liberation Sans, Arial, Helvetica, sans" font-size="10.00">ConfigurationMixIn</text>
</g>
<!-- Vendor -->
<g id="node3" class="node">
<title>Vendor</title>
<g id="a_node3"><a xlink:href="../pyEDAA.ToolSetup.html#pyEDAA.ToolSetup.Vendor" xlink:title="Vendor" target="_top">
<polygon fill="white" stroke="black" stroke-width="0.5" points="250,-37 188,-37 188,-18 250,-18 250,-37"/>
<text text-anchor="middle" x="219" y="-25" font-family="Vera Sans, DejaVu Sans, Liberation Sans, Arial, Helvetica, sans" font-size="10.00">Vendor</text>
</a>
</g>
</g>
<!-- ConfigurationMixIn&#45;&gt;Vendor -->
<g id="edge4" class="edge">
<title>ConfigurationMixIn&#45;&gt;Vendor</title>
<path fill="none" stroke="black" stroke-width="0.5" d="M147.91,-36.94C160.05,-35.31 172.18,-33.67 182.85,-32.24"/>
<polygon fill="black" stroke="black" stroke-width="0.5" points="183.24,-33.95 187.96,-31.55 182.77,-30.48 183.24,-33.95"/>
</g>
<!-- SystemTools -->
<g id="node2" class="node">
<title>SystemTools</title>
<g id="a_node2"><a xlink:href="../pyEDAA.ToolSetup/pyEDAA.ToolSetup.SystemTools.html#pyEDAA.ToolSetup.SystemTools.SystemTools" xlink:title="SystemTools" target="_top">
<polygon fill="white" stroke="black" stroke-width="0.5" points="385,-37 286,-37 286,-18 385,-18 385,-37"/>
<text text-anchor="middle" x="335.5" y="-25" font-family="Vera Sans, DejaVu Sans, Liberation Sans, Arial, Helvetica, sans" font-size="10.00">SystemTools</text>
</a>
</g>
</g>
<!-- Vendor&#45;&gt;SystemTools -->
<g id="edge1" class="edge">
<title>Vendor&#45;&gt;SystemTools</title>
<path fill="none" stroke="black" stroke-width="0.5" d="M250.08,-27.5C259.42,-27.5 270.02,-27.5 280.47,-27.5"/>
<polygon fill="black" stroke="black" stroke-width="0.5" points="280.58,-29.25 285.58,-27.5 280.58,-25.75 280.58,-29.25"/>
</g>
<!-- Vendor&#45;&gt;Vendor -->
<g id="edge3" class="edge">
<title>Vendor&#45;&gt;Vendor</title>
<path fill="none" stroke="black" stroke-width="0.5" d="M201.12,-37.08C192.42,-45.73 198.38,-55 219,-55 236.4,-55 243.36,-48.4 239.88,-41.15"/>
<polygon fill="black" stroke="black" stroke-width="0.5" points="241.26,-40.06 236.88,-37.08 238.44,-42.14 241.26,-40.06"/>
</g>
<!-- VendorInformation -->
<g id="node4" class="node">
<title>VendorInformation</title>
<g id="a_node4"><a xlink:href="../pyEDAA.ToolSetup.DataModel.html#pyEDAA.ToolSetup.DataModel.VendorInformation" xlink:title="VendorInformation" target="_top">
<polygon fill="white" stroke="black" stroke-width="0.5" points="148,-19 4,-19 4,0 148,0 148,-19"/>
<text text-anchor="middle" x="76" y="-7" font-family="Vera Sans, DejaVu Sans, Liberation Sans, Arial, Helvetica, sans" font-size="10.00">VendorInformation</text>
</a>
</g>
</g>
<!-- VendorInformation&#45;&gt;Vendor -->
<g id="edge2" class="edge">
<title>VendorInformation&#45;&gt;Vendor</title>
<path fill="none" stroke="black" stroke-width="0.5" d="M148.33,-18.61C160.3,-20.13 172.24,-21.66 182.77,-23"/>
<polygon fill="black" stroke="black" stroke-width="0.5" points="182.64,-24.75 187.82,-23.65 183.08,-21.28 182.64,-24.75"/>
</g>
</g>
</svg>
