<?xml version="1.0" encoding="UTF-8" standalone="no"?>
<!DOCTYPE svg PUBLIC "-//W3C//DTD SVG 1.1//EN"
 "http://www.w3.org/Graphics/SVG/1.1/DTD/svg11.dtd">
<!-- Generated by graphviz version 3.0.0 (20220413.0242)
 -->
<!-- Title: inheritance312c9695cc Pages: 1 -->
<svg width="491pt" height="64pt"
 viewBox="0.00 0.00 491.00 64.00" xmlns="http://www.w3.org/2000/svg" xmlns:xlink="http://www.w3.org/1999/xlink">
<g id="graph0" class="graph" transform="scale(1 1) rotate(0) translate(4 60)">
<title>inheritance312c9695cc</title>
<!-- ConfigurationMixIn -->
<g id="node1" class="node">
<title>ConfigurationMixIn</title>
<polygon fill="white" stroke="black" stroke-width="0.5" points="152,-56 0,-56 0,-37 152,-37 152,-56"/>
<text text-anchor="middle" x="76" y="-44" font-family="Vera Sans, DejaVu Sans, Liberation Sans, Arial, Helvetica, sans" font-size="10.00">ConfigurationMixIn</text>
</g>
<!-- ToolInstance -->
<g id="node3" class="node">
<title>ToolInstance</title>
<g id="a_node3"><a xlink:href="../pyEDAA.ToolSetup.html#pyEDAA.ToolSetup.ToolInstance" xlink:title="ToolInstance" target="_top">
<polygon fill="white" stroke="black" stroke-width="0.5" points="295,-37 188,-37 188,-18 295,-18 295,-37"/>
<text text-anchor="middle" x="241.5" y="-25" font-family="Vera Sans, DejaVu Sans, Liberation Sans, Arial, Helvetica, sans" font-size="10.00">ToolInstance</text>
</a>
</g>
</g>
<!-- ConfigurationMixIn&#45;&gt;ToolInstance -->
<g id="edge4" class="edge">
<title>ConfigurationMixIn&#45;&gt;ToolInstance</title>
<path fill="none" stroke="black" stroke-width="0.5" d="M152.05,-37.78C162.34,-36.58 172.78,-35.37 182.7,-34.22"/>
<polygon fill="black" stroke="black" stroke-width="0.5" points="183.07,-35.94 187.84,-33.62 182.67,-32.46 183.07,-35.94"/>
</g>
<!-- RivieraPROInstance -->
<g id="node2" class="node">
<title>RivieraPROInstance</title>
<g id="a_node2"><a xlink:href="../pyEDAA.ToolSetup/pyEDAA.ToolSetup.Aldec.html#pyEDAA.ToolSetup.Aldec.RivieraPROInstance" xlink:title="RivieraPROInstance" target="_top">
<polygon fill="white" stroke="black" stroke-width="0.5" points="483,-37 331,-37 331,-18 483,-18 483,-37"/>
<text text-anchor="middle" x="407" y="-25" font-family="Vera Sans, DejaVu Sans, Liberation Sans, Arial, Helvetica, sans" font-size="10.00">RivieraPROInstance</text>
</a>
</g>
</g>
<!-- ToolInstance&#45;&gt;RivieraPROInstance -->
<g id="edge1" class="edge">
<title>ToolInstance&#45;&gt;RivieraPROInstance</title>
<path fill="none" stroke="black" stroke-width="0.5" d="M295.13,-27.5C304.92,-27.5 315.35,-27.5 325.74,-27.5"/>
<polygon fill="black" stroke="black" stroke-width="0.5" points="325.84,-29.25 330.84,-27.5 325.84,-25.75 325.84,-29.25"/>
</g>
<!-- ToolInstance&#45;&gt;ToolInstance -->
<g id="edge3" class="edge">
<title>ToolInstance&#45;&gt;ToolInstance</title>
<path fill="none" stroke="black" stroke-width="0.5" d="M216.22,-37.08C203.93,-45.73 212.35,-55 241.5,-55 266.55,-55 276.29,-48.16 270.74,-40.74"/>
<polygon fill="black" stroke="black" stroke-width="0.5" points="271.64,-39.19 266.78,-37.08 269.26,-41.76 271.64,-39.19"/>
</g>
<!-- ToolInformation -->
<g id="node4" class="node">
<title>ToolInformation</title>
<g id="a_node4"><a xlink:href="../pyEDAA.ToolSetup.DataModel.html#pyEDAA.ToolSetup.DataModel.ToolInformation" xlink:title="ToolInformation" target="_top">
<polygon fill="white" stroke="black" stroke-width="0.5" points="140.5,-19 11.5,-19 11.5,0 140.5,0 140.5,-19"/>
<text text-anchor="middle" x="76" y="-7" font-family="Vera Sans, DejaVu Sans, Liberation Sans, Arial, Helvetica, sans" font-size="10.00">ToolInformation</text>
</a>
</g>
</g>
<!-- ToolInformation&#45;&gt;ToolInstance -->
<g id="edge2" class="edge">
<title>ToolInformation&#45;&gt;ToolInstance</title>
<path fill="none" stroke="black" stroke-width="0.5" d="M140.68,-16.51C154.58,-18.04 169.2,-19.65 182.85,-21.15"/>
<polygon fill="black" stroke="black" stroke-width="0.5" points="182.67,-22.89 187.83,-21.7 183.05,-19.41 182.67,-22.89"/>
</g>
</g>
</svg>
