<?xml version="1.0" encoding="UTF-8" standalone="no"?>
<!DOCTYPE svg PUBLIC "-//W3C//DTD SVG 1.1//EN"
 "http://www.w3.org/Graphics/SVG/1.1/DTD/svg11.dtd">
<!-- Generated by graphviz version 3.0.0 (20220413.0242)
 -->
<!-- Title: inheritanced2a21a9a71 Pages: 1 -->
<svg width="363pt" height="45pt"
 viewBox="0.00 0.00 363.00 45.00" xmlns="http://www.w3.org/2000/svg" xmlns:xlink="http://www.w3.org/1999/xlink">
<g id="graph0" class="graph" transform="scale(1 1) rotate(0) translate(4 41)">
<title>inheritanced2a21a9a71</title>
<!-- ConfigurationMixIn -->
<g id="node1" class="node">
<title>ConfigurationMixIn</title>
<polygon fill="white" stroke="black" stroke-width="0.5" points="152,-19 0,-19 0,0 152,0 152,-19"/>
<text text-anchor="middle" x="76" y="-7" font-family="Vera Sans, DejaVu Sans, Liberation Sans, Arial, Helvetica, sans" font-size="10.00">ConfigurationMixIn</text>
</g>
<!-- Tool -->
<g id="node3" class="node">
<title>Tool</title>
<g id="a_node3"><a xlink:href="../pyEDAA.ToolSetup.html#pyEDAA.ToolSetup.Tool" xlink:title="Tool" target="_top">
<polygon fill="white" stroke="black" stroke-width="0.5" points="242,-19 188,-19 188,0 242,0 242,-19"/>
<text text-anchor="middle" x="215" y="-7" font-family="Vera Sans, DejaVu Sans, Liberation Sans, Arial, Helvetica, sans" font-size="10.00">Tool</text>
</a>
</g>
</g>
<!-- ConfigurationMixIn&#45;&gt;Tool -->
<g id="edge3" class="edge">
<title>ConfigurationMixIn&#45;&gt;Tool</title>
<path fill="none" stroke="black" stroke-width="0.5" d="M152.31,-9.5C163.12,-9.5 173.7,-9.5 182.96,-9.5"/>
<polygon fill="black" stroke="black" stroke-width="0.5" points="182.96,-11.25 187.96,-9.5 182.96,-7.75 182.96,-11.25"/>
</g>
<!-- ModelSim -->
<g id="node2" class="node">
<title>ModelSim</title>
<g id="a_node2"><a xlink:href="../pyEDAA.ToolSetup/pyEDAA.ToolSetup.SiemensEDA.html#pyEDAA.ToolSetup.SiemensEDA.ModelSim" xlink:title="ModelSim" target="_top">
<polygon fill="white" stroke="black" stroke-width="0.5" points="355,-19 278,-19 278,0 355,0 355,-19"/>
<text text-anchor="middle" x="316.5" y="-7" font-family="Vera Sans, DejaVu Sans, Liberation Sans, Arial, Helvetica, sans" font-size="10.00">ModelSim</text>
</a>
</g>
</g>
<!-- Tool&#45;&gt;ModelSim -->
<g id="edge1" class="edge">
<title>Tool&#45;&gt;ModelSim</title>
<path fill="none" stroke="black" stroke-width="0.5" d="M242.14,-9.5C251.54,-9.5 262.41,-9.5 272.85,-9.5"/>
<polygon fill="black" stroke="black" stroke-width="0.5" points="272.93,-11.25 277.93,-9.5 272.93,-7.75 272.93,-11.25"/>
</g>
<!-- Tool&#45;&gt;Tool -->
<g id="edge2" class="edge">
<title>Tool&#45;&gt;Tool</title>
<path fill="none" stroke="black" stroke-width="0.5" d="M199.59,-19.08C192.09,-27.73 197.23,-37 215,-37 229.72,-37 235.77,-30.65 233.16,-23.55"/>
<polygon fill="black" stroke="black" stroke-width="0.5" points="234.52,-22.42 230.41,-19.08 231.54,-24.26 234.52,-22.42"/>
</g>
</g>
</svg>
