<?xml version="1.0" encoding="UTF-8" standalone="no"?>
<!DOCTYPE svg PUBLIC "-//W3C//DTD SVG 1.1//EN"
 "http://www.w3.org/Graphics/SVG/1.1/DTD/svg11.dtd">
<!-- Generated by graphviz version 3.0.0 (20220413.0242)
 -->
<!-- Title: inheritancec27dec3203 Pages: 1 -->
<svg width="446pt" height="82pt"
 viewBox="0.00 0.00 446.00 82.00" xmlns="http://www.w3.org/2000/svg" xmlns:xlink="http://www.w3.org/1999/xlink">
<g id="graph0" class="graph" transform="scale(1 1) rotate(0) translate(4 78)">
<title>inheritancec27dec3203</title>
<!-- ConfigurationMixIn -->
<g id="node1" class="node">
<title>ConfigurationMixIn</title>
<polygon fill="white" stroke="black" stroke-width="0.5" points="152,-74 0,-74 0,-55 152,-55 152,-74"/>
<text text-anchor="middle" x="76" y="-62" font-family="Vera Sans, DejaVu Sans, Liberation Sans, Arial, Helvetica, sans" font-size="10.00">ConfigurationMixIn</text>
</g>
<!-- ToolInstance -->
<g id="node3" class="node">
<title>ToolInstance</title>
<g id="a_node3"><a xlink:href="../pyEDAA.ToolSetup.html#pyEDAA.ToolSetup.ToolInstance" xlink:title="ToolInstance" target="_top">
<polygon fill="white" stroke="black" stroke-width="0.5" points="295,-56 188,-56 188,-37 295,-37 295,-56"/>
<text text-anchor="middle" x="241.5" y="-44" font-family="Vera Sans, DejaVu Sans, Liberation Sans, Arial, Helvetica, sans" font-size="10.00">ToolInstance</text>
</a>
</g>
</g>
<!-- ConfigurationMixIn&#45;&gt;ToolInstance -->
<g id="edge5" class="edge">
<title>ConfigurationMixIn&#45;&gt;ToolInstance</title>
<path fill="none" stroke="black" stroke-width="0.5" d="M152.05,-56.24C162.34,-55.1 172.78,-53.96 182.7,-52.86"/>
<polygon fill="black" stroke="black" stroke-width="0.5" points="183.06,-54.58 187.84,-52.3 182.68,-51.11 183.06,-54.58"/>
</g>
<!-- GHDLInstance -->
<g id="node2" class="node">
<title>GHDLInstance</title>
<g id="a_node2"><a xlink:href="../pyEDAA.ToolSetup/pyEDAA.ToolSetup.OpenSource.GHDL.html#pyEDAA.ToolSetup.OpenSource.GHDL.GHDLInstance" xlink:title="GHDLInstance" target="_top">
<polygon fill="white" stroke="black" stroke-width="0.5" points="438,-37 331,-37 331,-18 438,-18 438,-37"/>
<text text-anchor="middle" x="384.5" y="-25" font-family="Vera Sans, DejaVu Sans, Liberation Sans, Arial, Helvetica, sans" font-size="10.00">GHDLInstance</text>
</a>
</g>
</g>
<!-- ToolInstance&#45;&gt;GHDLInstance -->
<g id="edge1" class="edge">
<title>ToolInstance&#45;&gt;GHDLInstance</title>
<path fill="none" stroke="black" stroke-width="0.5" d="M295,-39.43C305.1,-38.07 315.72,-36.63 325.96,-35.25"/>
<polygon fill="black" stroke="black" stroke-width="0.5" points="326.23,-36.98 330.95,-34.58 325.76,-33.51 326.23,-36.98"/>
</g>
<!-- ToolInstance&#45;&gt;ToolInstance -->
<g id="edge4" class="edge">
<title>ToolInstance&#45;&gt;ToolInstance</title>
<path fill="none" stroke="black" stroke-width="0.5" d="M219.61,-56.08C208.97,-64.73 216.26,-74 241.5,-74 263.19,-74 271.63,-67.16 266.81,-59.74"/>
<polygon fill="black" stroke="black" stroke-width="0.5" points="268.08,-58.54 263.39,-56.08 265.53,-60.93 268.08,-58.54"/>
</g>
<!-- HDLSimulator -->
<g id="node4" class="node">
<title>HDLSimulator</title>
<g id="a_node4"><a xlink:href="../pyEDAA.ToolSetup.Interface.html#pyEDAA.ToolSetup.Interface.HDLSimulator" xlink:title="HDLSimulator" target="_top">
<polygon fill="white" stroke="black" stroke-width="0.5" points="295,-19 188,-19 188,0 295,0 295,-19"/>
<text text-anchor="middle" x="241.5" y="-7" font-family="Vera Sans, DejaVu Sans, Liberation Sans, Arial, Helvetica, sans" font-size="10.00">HDLSimulator</text>
</a>
</g>
</g>
<!-- HDLSimulator&#45;&gt;GHDLInstance -->
<g id="edge2" class="edge">
<title>HDLSimulator&#45;&gt;GHDLInstance</title>
<path fill="none" stroke="black" stroke-width="0.5" d="M295,-16.2C305.1,-17.49 315.72,-18.85 325.96,-20.15"/>
<polygon fill="black" stroke="black" stroke-width="0.5" points="325.77,-21.89 330.95,-20.79 326.21,-18.42 325.77,-21.89"/>
</g>
<!-- ToolInformation -->
<g id="node5" class="node">
<title>ToolInformation</title>
<g id="a_node5"><a xlink:href="../pyEDAA.ToolSetup.DataModel.html#pyEDAA.ToolSetup.DataModel.ToolInformation" xlink:title="ToolInformation" target="_top">
<polygon fill="white" stroke="black" stroke-width="0.5" points="140.5,-37 11.5,-37 11.5,-18 140.5,-18 140.5,-37"/>
<text text-anchor="middle" x="76" y="-25" font-family="Vera Sans, DejaVu Sans, Liberation Sans, Arial, Helvetica, sans" font-size="10.00">ToolInformation</text>
</a>
</g>
</g>
<!-- ToolInformation&#45;&gt;ToolInstance -->
<g id="edge3" class="edge">
<title>ToolInformation&#45;&gt;ToolInstance</title>
<path fill="none" stroke="black" stroke-width="0.5" d="M140.68,-34.9C154.58,-36.52 169.2,-38.21 182.85,-39.8"/>
<polygon fill="black" stroke="black" stroke-width="0.5" points="182.66,-41.54 187.83,-40.38 183.06,-38.06 182.66,-41.54"/>
</g>
</g>
</svg>
