<?xml version="1.0" encoding="UTF-8" standalone="no"?>
<!DOCTYPE svg PUBLIC "-//W3C//DTD SVG 1.1//EN"
 "http://www.w3.org/Graphics/SVG/1.1/DTD/svg11.dtd">
<!-- Generated by graphviz version 3.0.0 (20220413.0242)
 -->
<!-- Title: inheritancecf93dc4827 Pages: 1 -->
<svg width="483pt" height="64pt"
 viewBox="0.00 0.00 483.00 64.00" xmlns="http://www.w3.org/2000/svg" xmlns:xlink="http://www.w3.org/1999/xlink">
<g id="graph0" class="graph" transform="scale(1 1) rotate(0) translate(4 60)">
<title>inheritancecf93dc4827</title>
<!-- ActiveHDLInstance -->
<g id="node1" class="node">
<title>ActiveHDLInstance</title>
<g id="a_node1"><a xlink:href="../pyEDAA.ToolSetup/pyEDAA.ToolSetup.Aldec.html#pyEDAA.ToolSetup.Aldec.ActiveHDLInstance" xlink:title="ActiveHDLInstance" target="_top">
<polygon fill="white" stroke="black" stroke-width="0.5" points="475,-37 331,-37 331,-18 475,-18 475,-37"/>
<text text-anchor="middle" x="403" y="-25" font-family="Vera Sans, DejaVu Sans, Liberation Sans, Arial, Helvetica, sans" font-size="10.00">ActiveHDLInstance</text>
</a>
</g>
</g>
<!-- ToolInstance -->
<g id="node2" class="node">
<title>ToolInstance</title>
<g id="a_node2"><a xlink:href="../pyEDAA.ToolSetup.html#pyEDAA.ToolSetup.ToolInstance" xlink:title="ToolInstance" target="_top">
<polygon fill="white" stroke="black" stroke-width="0.5" points="295,-37 188,-37 188,-18 295,-18 295,-37"/>
<text text-anchor="middle" x="241.5" y="-25" font-family="Vera Sans, DejaVu Sans, Liberation Sans, Arial, Helvetica, sans" font-size="10.00">ToolInstance</text>
</a>
</g>
</g>
<!-- ToolInstance&#45;&gt;ActiveHDLInstance -->
<g id="edge1" class="edge">
<title>ToolInstance&#45;&gt;ActiveHDLInstance</title>
<path fill="none" stroke="black" stroke-width="0.5" d="M295.17,-27.5C304.99,-27.5 315.44,-27.5 325.81,-27.5"/>
<polygon fill="black" stroke="black" stroke-width="0.5" points="325.89,-29.25 330.89,-27.5 325.89,-25.75 325.89,-29.25"/>
</g>
<!-- ToolInstance&#45;&gt;ToolInstance -->
<g id="edge3" class="edge">
<title>ToolInstance&#45;&gt;ToolInstance</title>
<path fill="none" stroke="black" stroke-width="0.5" d="M216.84,-37.08C204.84,-45.73 213.06,-55 241.5,-55 265.94,-55 275.45,-48.16 270.02,-40.74"/>
<polygon fill="black" stroke="black" stroke-width="0.5" points="270.99,-39.25 266.16,-37.08 268.59,-41.79 270.99,-39.25"/>
</g>
<!-- ConfigurationMixIn -->
<g id="node3" class="node">
<title>ConfigurationMixIn</title>
<polygon fill="white" stroke="black" stroke-width="0.5" points="152,-56 0,-56 0,-37 152,-37 152,-56"/>
<text text-anchor="middle" x="76" y="-44" font-family="Vera Sans, DejaVu Sans, Liberation Sans, Arial, Helvetica, sans" font-size="10.00">ConfigurationMixIn</text>
</g>
<!-- ConfigurationMixIn&#45;&gt;ToolInstance -->
<g id="edge4" class="edge">
<title>ConfigurationMixIn&#45;&gt;ToolInstance</title>
<path fill="none" stroke="black" stroke-width="0.5" d="M152.05,-37.78C162.34,-36.58 172.78,-35.37 182.7,-34.22"/>
<polygon fill="black" stroke="black" stroke-width="0.5" points="183.07,-35.94 187.84,-33.62 182.67,-32.46 183.07,-35.94"/>
</g>
<!-- ToolInformation -->
<g id="node4" class="node">
<title>ToolInformation</title>
<g id="a_node4"><a xlink:href="../pyEDAA.ToolSetup.DataModel.html#pyEDAA.ToolSetup.DataModel.ToolInformation" xlink:title="ToolInformation" target="_top">
<polygon fill="white" stroke="black" stroke-width="0.5" points="140.5,-19 11.5,-19 11.5,0 140.5,0 140.5,-19"/>
<text text-anchor="middle" x="76" y="-7" font-family="Vera Sans, DejaVu Sans, Liberation Sans, Arial, Helvetica, sans" font-size="10.00">ToolInformation</text>
</a>
</g>
</g>
<!-- ToolInformation&#45;&gt;ToolInstance -->
<g id="edge2" class="edge">
<title>ToolInformation&#45;&gt;ToolInstance</title>
<path fill="none" stroke="black" stroke-width="0.5" d="M140.68,-16.51C154.58,-18.04 169.2,-19.65 182.85,-21.15"/>
<polygon fill="black" stroke="black" stroke-width="0.5" points="182.67,-22.89 187.83,-21.7 183.05,-19.41 182.67,-22.89"/>
</g>
</g>
</svg>
