<?xml version="1.0" encoding="UTF-8" standalone="no"?>
<!DOCTYPE svg PUBLIC "-//W3C//DTD SVG 1.1//EN"
 "http://www.w3.org/Graphics/SVG/1.1/DTD/svg11.dtd">
<!-- Generated by graphviz version 3.0.0 (20220413.0242)
 -->
<!-- Title: inheritance7134bbcdcc Pages: 1 -->
<svg width="370pt" height="45pt"
 viewBox="0.00 0.00 370.00 45.00" xmlns="http://www.w3.org/2000/svg" xmlns:xlink="http://www.w3.org/1999/xlink">
<g id="graph0" class="graph" transform="scale(1 1) rotate(0) translate(4 41)">
<title>inheritance7134bbcdcc</title>
<!-- ConfigurationMixIn -->
<g id="node1" class="node">
<title>ConfigurationMixIn</title>
<polygon fill="white" stroke="black" stroke-width="0.5" points="152,-19 0,-19 0,0 152,0 152,-19"/>
<text text-anchor="middle" x="76" y="-7" font-family="Vera Sans, DejaVu Sans, Liberation Sans, Arial, Helvetica, sans" font-size="10.00">ConfigurationMixIn</text>
</g>
<!-- Tool -->
<g id="node2" class="node">
<title>Tool</title>
<g id="a_node2"><a xlink:href="../pyEDAA.ToolSetup.html#pyEDAA.ToolSetup.Tool" xlink:title="Tool" target="_top">
<polygon fill="white" stroke="black" stroke-width="0.5" points="242,-19 188,-19 188,0 242,0 242,-19"/>
<text text-anchor="middle" x="215" y="-7" font-family="Vera Sans, DejaVu Sans, Liberation Sans, Arial, Helvetica, sans" font-size="10.00">Tool</text>
</a>
</g>
</g>
<!-- ConfigurationMixIn&#45;&gt;Tool -->
<g id="edge2" class="edge">
<title>ConfigurationMixIn&#45;&gt;Tool</title>
<path fill="none" stroke="black" stroke-width="0.5" d="M152.31,-9.5C163.12,-9.5 173.7,-9.5 182.96,-9.5"/>
<polygon fill="black" stroke="black" stroke-width="0.5" points="182.96,-11.25 187.96,-9.5 182.96,-7.75 182.96,-11.25"/>
</g>
<!-- Tool&#45;&gt;Tool -->
<g id="edge1" class="edge">
<title>Tool&#45;&gt;Tool</title>
<path fill="none" stroke="black" stroke-width="0.5" d="M198.97,-19.08C191.17,-27.73 196.52,-37 215,-37 230.31,-37 236.6,-30.65 233.89,-23.55"/>
<polygon fill="black" stroke="black" stroke-width="0.5" points="235.2,-22.35 231.03,-19.08 232.25,-24.24 235.2,-22.35"/>
</g>
<!-- VivadoSDK -->
<g id="node3" class="node">
<title>VivadoSDK</title>
<g id="a_node3"><a xlink:href="../pyEDAA.ToolSetup/pyEDAA.ToolSetup.Xilinx.html#pyEDAA.ToolSetup.Xilinx.VivadoSDK" xlink:title="VivadoSDK" target="_top">
<polygon fill="white" stroke="black" stroke-width="0.5" points="362,-19 278,-19 278,0 362,0 362,-19"/>
<text text-anchor="middle" x="320" y="-7" font-family="Vera Sans, DejaVu Sans, Liberation Sans, Arial, Helvetica, sans" font-size="10.00">VivadoSDK</text>
</a>
</g>
</g>
<!-- Tool&#45;&gt;VivadoSDK -->
<g id="edge3" class="edge">
<title>Tool&#45;&gt;VivadoSDK</title>
<path fill="none" stroke="black" stroke-width="0.5" d="M242.26,-9.5C251.58,-9.5 262.37,-9.5 272.86,-9.5"/>
<polygon fill="black" stroke="black" stroke-width="0.5" points="272.97,-11.25 277.97,-9.5 272.97,-7.75 272.97,-11.25"/>
</g>
</g>
</svg>
