<?xml version="1.0" encoding="UTF-8" standalone="no"?>
<!DOCTYPE svg PUBLIC "-//W3C//DTD SVG 1.1//EN"
 "http://www.w3.org/Graphics/SVG/1.1/DTD/svg11.dtd">
<!-- Generated by graphviz version 3.0.0 (20220413.0242)
 -->
<!-- Title: inheritance673beba845 Pages: 1 -->
<svg width="355pt" height="45pt"
 viewBox="0.00 0.00 355.00 45.00" xmlns="http://www.w3.org/2000/svg" xmlns:xlink="http://www.w3.org/1999/xlink">
<g id="graph0" class="graph" transform="scale(1 1) rotate(0) translate(4 41)">
<title>inheritance673beba845</title>
<!-- ConfigurationMixIn -->
<g id="node1" class="node">
<title>ConfigurationMixIn</title>
<polygon fill="white" stroke="black" stroke-width="0.5" points="152,-19 0,-19 0,0 152,0 152,-19"/>
<text text-anchor="middle" x="76" y="-7" font-family="Vera Sans, DejaVu Sans, Liberation Sans, Arial, Helvetica, sans" font-size="10.00">ConfigurationMixIn</text>
</g>
<!-- Tool -->
<g id="node3" class="node">
<title>Tool</title>
<g id="a_node3"><a xlink:href="../pyEDAA.ToolSetup.html#pyEDAA.ToolSetup.Tool" xlink:title="Tool" target="_top">
<polygon fill="white" stroke="black" stroke-width="0.5" points="242,-19 188,-19 188,0 242,0 242,-19"/>
<text text-anchor="middle" x="215" y="-7" font-family="Vera Sans, DejaVu Sans, Liberation Sans, Arial, Helvetica, sans" font-size="10.00">Tool</text>
</a>
</g>
</g>
<!-- ConfigurationMixIn&#45;&gt;Tool -->
<g id="edge3" class="edge">
<title>ConfigurationMixIn&#45;&gt;Tool</title>
<path fill="none" stroke="black" stroke-width="0.5" d="M152.31,-9.5C163.12,-9.5 173.7,-9.5 182.96,-9.5"/>
<polygon fill="black" stroke="black" stroke-width="0.5" points="182.96,-11.25 187.96,-9.5 182.96,-7.75 182.96,-11.25"/>
</g>
<!-- Quartus -->
<g id="node2" class="node">
<title>Quartus</title>
<g id="a_node2"><a xlink:href="../pyEDAA.ToolSetup/pyEDAA.ToolSetup.IntelFPGA.html#pyEDAA.ToolSetup.IntelFPGA.Quartus" xlink:title="Quartus" target="_top">
<polygon fill="white" stroke="black" stroke-width="0.5" points="347,-19 278,-19 278,0 347,0 347,-19"/>
<text text-anchor="middle" x="312.5" y="-7" font-family="Vera Sans, DejaVu Sans, Liberation Sans, Arial, Helvetica, sans" font-size="10.00">Quartus</text>
</a>
</g>
</g>
<!-- Tool&#45;&gt;Quartus -->
<g id="edge1" class="edge">
<title>Tool&#45;&gt;Quartus</title>
<path fill="none" stroke="black" stroke-width="0.5" d="M242.1,-9.5C251.59,-9.5 262.53,-9.5 272.87,-9.5"/>
<polygon fill="black" stroke="black" stroke-width="0.5" points="272.9,-11.25 277.9,-9.5 272.9,-7.75 272.9,-11.25"/>
</g>
<!-- Tool&#45;&gt;Tool -->
<g id="edge2" class="edge">
<title>Tool&#45;&gt;Tool</title>
<path fill="none" stroke="black" stroke-width="0.5" d="M200.2,-19.08C193.01,-27.73 197.94,-37 215,-37 229.13,-37 234.94,-30.65 232.43,-23.55"/>
<polygon fill="black" stroke="black" stroke-width="0.5" points="233.85,-22.5 229.8,-19.08 230.83,-24.28 233.85,-22.5"/>
</g>
</g>
</svg>
