<?xml version="1.0" encoding="UTF-8" standalone="no"?>
<!DOCTYPE svg PUBLIC "-//W3C//DTD SVG 1.1//EN"
 "http://www.w3.org/Graphics/SVG/1.1/DTD/svg11.dtd">
<!-- Generated by graphviz version 3.0.0 (20220413.0242)
 -->
<!-- Title: inheritanceb670c1d2e2 Pages: 1 -->
<svg width="393pt" height="82pt"
 viewBox="0.00 0.00 393.00 82.00" xmlns="http://www.w3.org/2000/svg" xmlns:xlink="http://www.w3.org/1999/xlink">
<g id="graph0" class="graph" transform="scale(1 1) rotate(0) translate(4 78)">
<title>inheritanceb670c1d2e2</title>
<!-- ConfigurationMixIn -->
<g id="node1" class="node">
<title>ConfigurationMixIn</title>
<polygon fill="white" stroke="black" stroke-width="0.5" points="152,-56 0,-56 0,-37 152,-37 152,-56"/>
<text text-anchor="middle" x="76" y="-44" font-family="Vera Sans, DejaVu Sans, Liberation Sans, Arial, Helvetica, sans" font-size="10.00">ConfigurationMixIn</text>
</g>
<!-- Tool -->
<g id="node3" class="node">
<title>Tool</title>
<g id="a_node3"><a xlink:href="../pyEDAA.ToolSetup.html#pyEDAA.ToolSetup.Tool" xlink:title="Tool" target="_top">
<polygon fill="white" stroke="black" stroke-width="0.5" points="268.5,-56 214.5,-56 214.5,-37 268.5,-37 268.5,-56"/>
<text text-anchor="middle" x="241.5" y="-44" font-family="Vera Sans, DejaVu Sans, Liberation Sans, Arial, Helvetica, sans" font-size="10.00">Tool</text>
</a>
</g>
</g>
<!-- ConfigurationMixIn&#45;&gt;Tool -->
<g id="edge4" class="edge">
<title>ConfigurationMixIn&#45;&gt;Tool</title>
<path fill="none" stroke="black" stroke-width="0.5" d="M152.05,-46.5C172.11,-46.5 192.72,-46.5 208.99,-46.5"/>
<polygon fill="black" stroke="black" stroke-width="0.5" points="209.33,-48.25 214.33,-46.5 209.33,-44.75 209.33,-48.25"/>
</g>
<!-- GHDL -->
<g id="node2" class="node">
<title>GHDL</title>
<g id="a_node2"><a xlink:href="../pyEDAA.ToolSetup/pyEDAA.ToolSetup.OpenSource.GHDL.html#pyEDAA.ToolSetup.OpenSource.GHDL.GHDL" xlink:title="GHDL" target="_top">
<polygon fill="white" stroke="black" stroke-width="0.5" points="385,-37 331,-37 331,-18 385,-18 385,-37"/>
<text text-anchor="middle" x="358" y="-25" font-family="Vera Sans, DejaVu Sans, Liberation Sans, Arial, Helvetica, sans" font-size="10.00">GHDL</text>
</a>
</g>
</g>
<!-- Tool&#45;&gt;GHDL -->
<g id="edge1" class="edge">
<title>Tool&#45;&gt;GHDL</title>
<path fill="none" stroke="black" stroke-width="0.5" d="M268.77,-42.14C285.64,-39.34 307.65,-35.69 325.47,-32.73"/>
<polygon fill="black" stroke="black" stroke-width="0.5" points="326.21,-34.38 330.85,-31.84 325.63,-30.93 326.21,-34.38"/>
</g>
<!-- Tool&#45;&gt;Tool -->
<g id="edge3" class="edge">
<title>Tool&#45;&gt;Tool</title>
<path fill="none" stroke="black" stroke-width="0.5" d="M223.62,-56.08C214.92,-64.73 220.88,-74 241.5,-74 258.9,-74 265.86,-67.4 262.38,-60.15"/>
<polygon fill="black" stroke="black" stroke-width="0.5" points="263.76,-59.06 259.38,-56.08 260.94,-61.14 263.76,-59.06"/>
</g>
<!-- HDLSimulator -->
<g id="node4" class="node">
<title>HDLSimulator</title>
<g id="a_node4"><a xlink:href="../pyEDAA.ToolSetup.Interface.html#pyEDAA.ToolSetup.Interface.HDLSimulator" xlink:title="HDLSimulator" target="_top">
<polygon fill="white" stroke="black" stroke-width="0.5" points="295,-19 188,-19 188,0 295,0 295,-19"/>
<text text-anchor="middle" x="241.5" y="-7" font-family="Vera Sans, DejaVu Sans, Liberation Sans, Arial, Helvetica, sans" font-size="10.00">HDLSimulator</text>
</a>
</g>
</g>
<!-- HDLSimulator&#45;&gt;GHDL -->
<g id="edge2" class="edge">
<title>HDLSimulator&#45;&gt;GHDL</title>
<path fill="none" stroke="black" stroke-width="0.5" d="M295.06,-17.76C305.57,-19.42 316.3,-21.1 325.81,-22.6"/>
<polygon fill="black" stroke="black" stroke-width="0.5" points="325.75,-24.36 330.96,-23.41 326.29,-20.9 325.75,-24.36"/>
</g>
</g>
</svg>
