<?xml version="1.0" encoding="UTF-8" standalone="no"?>
<!DOCTYPE svg PUBLIC "-//W3C//DTD SVG 1.1//EN"
 "http://www.w3.org/Graphics/SVG/1.1/DTD/svg11.dtd">
<!-- Generated by graphviz version 3.0.0 (20220413.0242)
 -->
<!-- Title: inheritance08d36616e7 Pages: 1 -->
<svg width="363pt" height="64pt"
 viewBox="0.00 0.00 363.00 64.00" xmlns="http://www.w3.org/2000/svg" xmlns:xlink="http://www.w3.org/1999/xlink">
<g id="graph0" class="graph" transform="scale(1 1) rotate(0) translate(4 60)">
<title>inheritance08d36616e7</title>
<!-- ConfigurationMixIn -->
<g id="node1" class="node">
<title>ConfigurationMixIn</title>
<polygon fill="white" stroke="black" stroke-width="0.5" points="152,-56 0,-56 0,-37 152,-37 152,-56"/>
<text text-anchor="middle" x="76" y="-44" font-family="Vera Sans, DejaVu Sans, Liberation Sans, Arial, Helvetica, sans" font-size="10.00">ConfigurationMixIn</text>
</g>
<!-- Vendor -->
<g id="node3" class="node">
<title>Vendor</title>
<g id="a_node3"><a xlink:href="../pyEDAA.ToolSetup.html#pyEDAA.ToolSetup.Vendor" xlink:title="Vendor" target="_top">
<polygon fill="white" stroke="black" stroke-width="0.5" points="250,-37 188,-37 188,-18 250,-18 250,-37"/>
<text text-anchor="middle" x="219" y="-25" font-family="Vera Sans, DejaVu Sans, Liberation Sans, Arial, Helvetica, sans" font-size="10.00">Vendor</text>
</a>
</g>
</g>
<!-- ConfigurationMixIn&#45;&gt;Vendor -->
<g id="edge4" class="edge">
<title>ConfigurationMixIn&#45;&gt;Vendor</title>
<path fill="none" stroke="black" stroke-width="0.5" d="M147.91,-36.94C160.05,-35.31 172.18,-33.67 182.85,-32.24"/>
<polygon fill="black" stroke="black" stroke-width="0.5" points="183.24,-33.95 187.96,-31.55 182.77,-30.48 183.24,-33.95"/>
</g>
<!-- Lattice -->
<g id="node2" class="node">
<title>Lattice</title>
<g id="a_node2"><a xlink:href="../pyEDAA.ToolSetup/pyEDAA.ToolSetup.Lattice.html#pyEDAA.ToolSetup.Lattice.Lattice" xlink:title="Lattice" target="_top">
<polygon fill="white" stroke="black" stroke-width="0.5" points="355,-37 286,-37 286,-18 355,-18 355,-37"/>
<text text-anchor="middle" x="320.5" y="-25" font-family="Vera Sans, DejaVu Sans, Liberation Sans, Arial, Helvetica, sans" font-size="10.00">Lattice</text>
</a>
</g>
</g>
<!-- Vendor&#45;&gt;Lattice -->
<g id="edge1" class="edge">
<title>Vendor&#45;&gt;Lattice</title>
<path fill="none" stroke="black" stroke-width="0.5" d="M250.12,-27.5C259.67,-27.5 270.37,-27.5 280.45,-27.5"/>
<polygon fill="black" stroke="black" stroke-width="0.5" points="280.65,-29.25 285.65,-27.5 280.65,-25.75 280.65,-29.25"/>
</g>
<!-- Vendor&#45;&gt;Vendor -->
<g id="edge3" class="edge">
<title>Vendor&#45;&gt;Vendor</title>
<path fill="none" stroke="black" stroke-width="0.5" d="M203.59,-37.08C196.09,-45.73 201.23,-55 219,-55 233.72,-55 239.77,-48.65 237.16,-41.55"/>
<polygon fill="black" stroke="black" stroke-width="0.5" points="238.52,-40.42 234.41,-37.08 235.54,-42.26 238.52,-40.42"/>
</g>
<!-- VendorInformation -->
<g id="node4" class="node">
<title>VendorInformation</title>
<g id="a_node4"><a xlink:href="../pyEDAA.ToolSetup.DataModel.html#pyEDAA.ToolSetup.DataModel.VendorInformation" xlink:title="VendorInformation" target="_top">
<polygon fill="white" stroke="black" stroke-width="0.5" points="148,-19 4,-19 4,0 148,0 148,-19"/>
<text text-anchor="middle" x="76" y="-7" font-family="Vera Sans, DejaVu Sans, Liberation Sans, Arial, Helvetica, sans" font-size="10.00">VendorInformation</text>
</a>
</g>
</g>
<!-- VendorInformation&#45;&gt;Vendor -->
<g id="edge2" class="edge">
<title>VendorInformation&#45;&gt;Vendor</title>
<path fill="none" stroke="black" stroke-width="0.5" d="M148.33,-18.61C160.3,-20.13 172.24,-21.66 182.77,-23"/>
<polygon fill="black" stroke="black" stroke-width="0.5" points="182.64,-24.75 187.82,-23.65 183.08,-21.28 182.64,-24.75"/>
</g>
</g>
</svg>
