<?xml version="1.0" encoding="UTF-8" standalone="no"?>
<!DOCTYPE svg PUBLIC "-//W3C//DTD SVG 1.1//EN"
 "http://www.w3.org/Graphics/SVG/1.1/DTD/svg11.dtd">
<!-- Generated by graphviz version 8.0.5 (20230430.1635)
 -->
<!-- Title: inheritancec27dec3203 Pages: 1 -->
<svg width="1pt" height="864pt"
 viewBox="0.00 0.00 0.80 864.00" xmlns="http://www.w3.org/2000/svg" xmlns:xlink="http://www.w3.org/1999/xlink">
<g id="graph0" class="graph" transform="scale(0.00179853 0.00179853) rotate(0) translate(4 480388.88)">
<title>inheritancec27dec3203</title>
<!-- ConfigurationMixIn -->
<g id="node1" class="node">
<title>ConfigurationMixIn</title>
<polygon fill="white" stroke="black" stroke-width="0.5" points="151,-272973.83 0,-272973.83 0,-272955.33 151,-272955.33 151,-272973.83"/>
<text text-anchor="middle" x="75.5" y="-272960.33" font-family="Vera Sans, DejaVu Sans, Liberation Sans, Arial, Helvetica, sans" font-size="10.00">ConfigurationMixIn</text>
</g>
<!-- ToolInstance -->
<g id="node3" class="node">
<title>ToolInstance</title>
<g id="a_node3"><a xlink:href="pyEDAA.ToolSetup.html#pyEDAA.ToolSetup.ToolInstance" xlink:title="ToolInstance" target="_top">
<polygon fill="white" stroke="black" stroke-width="0.5" points="293,-480366.88 187,-480366.88 187,-65526.29 293,-65526.29 293,-480366.88"/>
<text text-anchor="middle" x="240" y="-480353.38" font-family="Vera Sans, DejaVu Sans, Liberation Sans, Arial, Helvetica, sans" font-size="10.00">ToolInstance</text>
</a>
</g>
</g>
<!-- ConfigurationMixIn&#45;&gt;ToolInstance -->
<g id="edge5" class="edge">
<title>ConfigurationMixIn&#45;&gt;ToolInstance</title>
<path fill="none" stroke="black" stroke-width="0.5" d="M151.09,-272956.32C161.04,-272955.22 171.12,-272954.1 180.74,-272953.04"/>
<polygon fill="black" stroke="black" stroke-width="0.5" points="181.88,-272954.67 186.66,-272952.38 181.5,-272951.19 181.88,-272954.67"/>
</g>
<!-- GHDLInstance -->
<g id="node2" class="node">
<title>GHDLInstance</title>
<g id="a_node2"><a xlink:href="pyEDAA.ToolSetup.OpenSource.GHDL.html#pyEDAA.ToolSetup.OpenSource.GHDL.GHDLInstance" xlink:title="GHDLInstance" target="_top">
<polygon fill="white" stroke="black" stroke-width="0.5" points="435,-240187.83 329,-240187.83 329,-240169.33 435,-240169.33 435,-240187.83"/>
<text text-anchor="middle" x="382" y="-240174.33" font-family="Vera Sans, DejaVu Sans, Liberation Sans, Arial, Helvetica, sans" font-size="10.00">GHDLInstance</text>
</a>
</g>
</g>
<!-- ToolInstance&#45;&gt;GHDLInstance -->
<g id="edge1" class="edge">
<title>ToolInstance&#45;&gt;GHDLInstance</title>
<path fill="none" stroke="black" stroke-width="0.5" d="M293.5,-260658.69C332.37,-251560.58 378.94,-240661.81 380.93,-240194.17"/>
<polygon fill="black" stroke="black" stroke-width="0.5" points="382.69,-240193.32 380.96,-240188.32 379.19,-240193.31 382.69,-240193.32"/>
</g>
<!-- ToolInstance&#45;&gt;ToolInstance -->
<g id="edge4" class="edge">
<title>ToolInstance&#45;&gt;ToolInstance</title>
<path fill="none" stroke="black" stroke-width="0.5" d="M239.31,-480367.24C239.54,-480378.98 239.77,-480384.88 240,-480384.88 240.19,-480384.88 240.38,-480380.99 240.56,-480373.23"/>
<polygon fill="black" stroke="black" stroke-width="0.5" points="242.33,-480372.28 240.69,-480367.24 238.83,-480372.2 242.33,-480372.28"/>
</g>
<!-- HDLSimulator -->
<g id="node4" class="node">
<title>HDLSimulator</title>
<g id="a_node4"><a xlink:href="pyEDAA.ToolSetup.Interface.html#pyEDAA.ToolSetup.Interface.HDLSimulator" xlink:title="HDLSimulator" target="_top">
<polygon fill="white" stroke="black" stroke-width="0.5" points="293,-414823.17 187,-414823.17 187,0 293,0 293,-414823.17"/>
<text text-anchor="middle" x="240" y="-414809.67" font-family="Vera Sans, DejaVu Sans, Liberation Sans, Arial, Helvetica, sans" font-size="10.00">HDLSimulator</text>
</a>
</g>
</g>
<!-- HDLSimulator&#45;&gt;GHDLInstance -->
<g id="edge2" class="edge">
<title>HDLSimulator&#45;&gt;GHDLInstance</title>
<path fill="none" stroke="black" stroke-width="0.5" d="M293.5,-219699.11C332.37,-228796.93 378.94,-239695.37 380.93,-240163"/>
<polygon fill="black" stroke="black" stroke-width="0.5" points="379.19,-240163.86 380.96,-240168.85 382.69,-240163.85 379.19,-240163.86"/>
</g>
<!-- ToolInformation -->
<g id="node5" class="node">
<title>ToolInformation</title>
<g id="a_node5"><a xlink:href="pyEDAA.ToolSetup.DataModel.html#pyEDAA.ToolSetup.DataModel.ToolInformation" xlink:title="ToolInformation" target="_top">
<polygon fill="white" stroke="black" stroke-width="0.5" points="139.75,-272936.83 11.25,-272936.83 11.25,-272918.33 139.75,-272918.33 139.75,-272936.83"/>
<text text-anchor="middle" x="75.5" y="-272923.33" font-family="Vera Sans, DejaVu Sans, Liberation Sans, Arial, Helvetica, sans" font-size="10.00">ToolInformation</text>
</a>
</g>
</g>
<!-- ToolInformation&#45;&gt;ToolInstance -->
<g id="edge3" class="edge">
<title>ToolInformation&#45;&gt;ToolInstance</title>
<path fill="none" stroke="black" stroke-width="0.5" d="M139.79,-272934.98C153.36,-272936.57 167.63,-272938.24 180.99,-272939.8"/>
<polygon fill="black" stroke="black" stroke-width="0.5" points="181.48,-272941.62 186.65,-272940.46 181.89,-272938.14 181.48,-272941.62"/>
</g>
</g>
</svg>
